# xmcd
#
# Track frame offsets:
#	150
#	16488
#	34307
#	51389
#	59523
#	73031
#	89508
#	101227
#	110476
#	121276
#	134249
#	145970
#	163265
#	180112
#	198371
#	215932
#	228816
#	242332
#	254589
#	267732
#
# Disc length: 3764 seconds
#
# Revision: 2
# Processed by: cddbd v1.5.1PL0 Copyright (c) Steve Scherf et al.
# Submitted via: audiograbber 1.81.03
#
DISCID=3e0eb214
DTITLE=Various Artist - 20 Best Of Bluegrass
DYEAR=2004
DGENRE=Bluegrass
TTITLE0=Bela Fleck - Up And Around The Bend
TTITLE1=Phoenix - Shell Full Of Dust 
TTITLE2=Betty Jean`Robinson - Tramp On The Street 
TTITLE3=Don`Reno - Charlotte Breakdown
TTITLE4=Jim And Jesse - Truck Stops And Pretty Girls
TTITLE5=Art`Stevenson]p[High Water - Ice Covered Birches
TTITLE6=The`Tony Rice Unit - I Hope You Have Learned
TTITLE7=Mac`Wiseman - Jimmy Brown The Newsboy
TTITLE8=Joe`Maphis]p[Rose Lee`Maphis - Orange Blossom 
TTITLE9=Lester`Flatt - Cabin On The Hill 
TTITLE10=Bluegrass Cardinals - Low And Lonely 
TTITLE11=Larry`Cordle]p[Lonesome Standard Time - Carolyn At The Broken Wheel In
TTITLE11=n
TTITLE12=The`Stonemans - Muleskinner Blues
TTITLE13=James`King - A Few Old Memories 
TTITLE14=Ronnie`Reno - Wild Bill Cheatham
TTITLE15=Bill`Evans - Heavy Traffic Ahead 
TTITLE16=David`Grisman - Til The End Of The World Rolls Round 
TTITLE17=The'Osborne Brothers - My Cabin In Caroline 
TTITLE18=Ronnie`Reno - Boogie Grass Band 
TTITLE19=Johnny`Gimble]p[Benny`Martin - Dueling Fiddles 
EXTD=
EXTT0=Bela Fleck
EXTT1=Phoenix
EXTT2=Betty jean Robinson
EXTT3=Don Reno
EXTT4=Jim and Jesse
EXTT5=Art Stevenson and High water
EXTT6=The tony Rice unit
EXTT7=Mac Wiseman
EXTT8=Joe Maphis and rose lee Maphis
EXTT9=Lester Flatt
EXTT10=Bluegrass cardinals
EXTT11=Larry cordle
EXTT12=The stonemans
EXTT13=James King
EXTT14=Ronnie reno
EXTT15=Bill Evans
EXTT16=David Grisman
EXTT17=The osborn brothers
EXTT18=Ronnie Reno
EXTT19=Johnny Gimble and Benny Martin
PLAYORDER=
